<?xml version="1.0" standalone="no"?>
<!DOCTYPE svg PUBLIC "-//W3C//DTD SVG 20010904//EN"
 "http://www.w3.org/TR/2001/REC-SVG-20010904/DTD/svg10.dtd">
<svg version="1.0" xmlns="http://www.w3.org/2000/svg"
 width="256.000000pt" height="256.000000pt" viewBox="0 0 256.000000 256.000000"
 preserveAspectRatio="xMidYMid meet">
<metadata>
Created by potrace 1.15, written by Peter Selinger 2001-2017
</metadata>
<g transform="translate(0.000000,256.000000) scale(0.100000,-0.100000)"
fill="#000000" stroke="none">
<path d="M1880 2291 c0 -5 -8 -7 -19 -4 -10 2 -25 -2 -33 -11 -9 -8 -18 -12
-22 -9 -3 4 -6 1 -6 -6 0 -7 -4 -10 -10 -6 -5 3 -20 -5 -32 -17 -13 -13 -27
-23 -31 -23 -4 0 -12 -7 -17 -15 -5 -8 -10 -10 -10 -5 0 6 -10 -1 -21 -15 -11
-14 -18 -18 -14 -10 4 8 -3 4 -15 -10 -12 -14 -25 -25 -29 -25 -3 0 -44 -38
-91 -85 -47 -46 -78 -80 -70 -76 8 4 4 -2 -10 -13 -14 -11 -20 -21 -15 -21 6
0 2 -5 -8 -11 -9 -6 -15 -14 -12 -20 4 -5 1 -9 -5 -9 -6 0 -8 -4 -5 -10 3 -5
1 -10 -5 -10 -6 0 -8 -4 -5 -10 3 -5 1 -10 -5 -10 -6 0 -8 -4 -5 -10 3 -5 1
-10 -5 -10 -7 0 -10 -7 -6 -15 3 -8 1 -15 -5 -15 -6 0 -9 -7 -5 -15 3 -8 2
-15 -3 -15 -7 0 -8 -185 -1 -200 1 -3 2 -9 1 -14 -1 -4 3 -14 9 -21 8 -9 7
-17 -4 -28 -8 -8 -12 -18 -8 -21 3 -4 -1 -4 -11 0 -11 4 -19 0 -23 -10 -3 -9
-10 -13 -15 -10 -5 3 -9 0 -9 -6 0 -6 -4 -8 -10 -5 -5 3 -10 1 -10 -5 0 -6 -4
-8 -10 -5 -5 3 -10 1 -10 -6 0 -7 -3 -10 -6 -6 -9 8 -64 -21 -64 -34 0 -6 -4
-7 -10 -4 -5 3 -10 2 -10 -3 0 -5 -6 -9 -14 -9 -16 0 -28 55 -14 63 10 7 11
114 0 114 -4 0 -6 18 -4 40 3 24 0 40 -7 40 -6 0 -8 11 -4 30 3 19 1 30 -5 30
-6 0 -9 7 -6 15 4 8 1 15 -5 15 -6 0 -8 7 -5 14 6 15 -57 86 -75 86 -5 0 -17
-8 -27 -17 -10 -10 -18 -16 -19 -13 0 3 -19 -12 -42 -34 -23 -21 -41 -42 -40
-46 1 -4 -9 -17 -23 -29 -14 -13 -18 -20 -10 -16 8 4 6 -1 -4 -9 -11 -9 -16
-16 -10 -16 5 0 1 -5 -9 -11 -9 -6 -15 -14 -12 -20 4 -5 1 -9 -5 -9 -6 0 -8
-4 -5 -10 3 -5 1 -10 -5 -10 -6 0 -8 -4 -5 -10 3 -5 2 -10 -2 -10 -14 0 -35
-68 -28 -91 5 -15 4 -19 -4 -15 -7 5 -11 -9 -11 -44 0 -31 4 -49 10 -45 6 4 7
-6 3 -26 -5 -24 -3 -30 7 -24 9 5 10 2 5 -14 -4 -12 -2 -21 4 -21 6 0 10 -3 8
-7 -1 -5 2 -9 7 -10 5 -1 12 -7 16 -13 4 -7 13 -9 19 -6 17 11 13 41 -9 61
-11 10 -20 24 -20 32 0 7 -3 13 -7 13 -5 0 -8 27 -8 59 0 33 4 57 9 54 5 -3 7
6 4 21 -3 14 -1 26 4 26 5 0 8 6 6 12 -3 7 2 19 9 27 8 7 12 20 9 28 -3 8 -2
11 3 8 8 -4 28 34 22 43 -1 2 8 12 21 23 13 11 17 17 9 13 -7 -3 13 20 45 52
64 65 96 72 116 28 6 -13 15 -24 19 -24 5 0 6 -7 3 -15 -4 -8 -2 -15 4 -15 6
0 8 -9 5 -20 -3 -11 -1 -20 4 -20 5 0 8 -13 5 -30 -2 -17 0 -30 4 -30 5 0 9
-49 9 -110 0 -60 -3 -110 -6 -110 -4 0 -12 -13 -19 -30 -7 -16 -16 -27 -21
-24 -5 3 -12 -2 -15 -10 -3 -9 -10 -14 -15 -11 -4 3 -16 -6 -25 -20 -9 -13
-19 -23 -24 -20 -4 2 -28 -20 -54 -51 -26 -30 -52 -52 -57 -48 -5 3 -8 1 -7
-5 2 -5 -13 -24 -32 -41 -19 -17 -28 -28 -20 -25 8 4 2 -4 -15 -19 -16 -14
-26 -25 -21 -26 6 0 1 -7 -10 -15 -10 -8 -16 -15 -11 -15 4 0 -2 -9 -13 -20
-12 -12 -18 -25 -15 -30 4 -6 1 -10 -6 -10 -7 0 -10 -3 -6 -6 3 -4 -1 -13 -9
-21 -8 -8 -12 -19 -9 -24 4 -5 1 -9 -5 -9 -6 0 -8 -4 -5 -10 3 -5 1 -10 -5
-10 -6 0 -8 -5 -5 -10 3 -6 1 -10 -5 -10 -7 0 -10 -7 -6 -15 3 -8 1 -15 -5
-15 -6 0 -9 -7 -5 -15 3 -8 1 -15 -5 -15 -6 0 -9 -7 -5 -15 3 -8 0 -15 -5 -15
-6 0 -9 -9 -6 -20 3 -11 1 -20 -5 -20 -6 0 -8 -9 -5 -20 3 -11 1 -20 -5 -20
-6 0 -8 -13 -6 -30 2 -16 1 -31 -3 -32 -20 -8 -8 -228 13 -228 5 0 6 -5 3 -11
-10 -15 15 -70 28 -62 5 3 7 1 4 -4 -4 -6 0 -16 8 -23 8 -7 15 -9 15 -6 0 4 7
1 15 -8 9 -9 23 -12 33 -9 22 9 88 75 84 86 -1 4 5 10 13 14 21 7 58 80 49 95
-4 7 -3 8 4 4 11 -6 17 12 13 37 0 4 4 7 10 7 5 0 7 4 4 10 -3 5 -1 10 6 10 7
0 10 3 6 6 -3 4 1 13 9 21 8 9 13 22 10 29 -3 8 0 14 6 14 6 0 9 3 5 6 -3 4 1
13 9 21 8 9 13 22 10 29 -3 8 -1 14 5 14 6 0 7 4 4 10 -3 5 -1 10 5 10 7 0 9
7 6 16 -4 10 -2 13 6 8 8 -5 9 -2 5 9 -4 10 -2 17 4 17 6 0 9 6 6 14 -3 8 -1
16 4 18 6 2 12 16 12 31 1 15 6 27 11 27 4 0 6 7 2 15 -3 8 0 15 5 15 6 0 9 9
6 20 -3 11 -2 20 2 20 18 0 76 326 67 373 -3 15 -1 27 4 27 6 0 10 5 10 11 0
15 47 59 54 51 3 -3 6 0 6 7 0 7 5 9 10 6 5 -3 10 -1 10 5 0 6 5 8 10 5 6 -3
13 1 16 9 3 9 10 13 15 10 5 -3 9 0 9 7 0 7 3 10 6 6 4 -3 29 5 56 19 40 20
51 22 62 12 7 -7 11 -18 9 -24 -2 -7 3 -18 11 -27 8 -8 12 -17 9 -21 -4 -3 0
-6 7 -6 7 0 11 -3 7 -6 -8 -8 13 -64 25 -64 5 0 6 -4 3 -10 -3 -5 -2 -10 2
-10 5 0 10 -10 10 -22 1 -13 7 -24 13 -26 5 -2 8 -8 4 -13 -3 -5 -1 -9 5 -9 6
0 8 -6 5 -14 -3 -7 2 -20 10 -29 8 -8 12 -17 9 -21 -4 -3 -1 -6 5 -6 6 0 9 -6
6 -14 -3 -7 1 -20 9 -27 7 -8 12 -20 9 -28 -3 -8 0 -11 7 -7 7 5 9 1 5 -8 -3
-9 -1 -16 5 -16 6 0 8 -7 5 -15 -4 -8 -1 -15 5 -15 16 0 14 -19 -4 -37 -8 -8
-13 -18 -10 -23 3 -4 -2 -11 -11 -14 -8 -3 -12 -10 -9 -16 3 -5 2 -10 -2 -10
-5 0 -17 -13 -26 -30 -10 -16 -15 -30 -12 -30 4 0 -1 -7 -10 -16 -9 -9 -14
-23 -11 -30 3 -8 1 -14 -5 -14 -6 0 -9 -7 -5 -15 3 -8 0 -15 -5 -15 -6 0 -9
-9 -6 -20 3 -11 1 -20 -4 -20 -14 0 -10 -40 5 -56 17 -16 56 -19 56 -3 0 5 4
8 9 5 11 -7 33 18 24 27 -3 4 2 9 11 13 9 3 13 10 10 15 -3 5 0 9 6 9 6 0 8 5
5 10 -3 6 -1 10 5 10 7 0 9 7 6 16 -4 10 -2 13 6 8 7 -5 9 0 6 14 -4 12 -2 22
4 22 6 0 7 24 3 64 -5 44 -3 66 4 71 9 5 9 10 0 21 -9 11 -9 14 1 14 8 0 10 3
7 7 -4 3 2 13 13 20 11 8 18 18 16 22 -3 4 8 18 25 30 16 12 27 26 24 30 -2 5
7 16 21 26 14 9 23 19 21 22 -3 3 6 16 21 28 19 17 24 27 17 34 -8 8 -23 -1
-50 -30 -22 -23 -33 -39 -25 -35 8 4 -1 -7 -20 -24 -19 -17 -35 -35 -35 -40 0
-12 -36 -39 -52 -40 -7 0 -10 7 -7 15 4 8 1 15 -5 15 -6 0 -8 6 -5 14 3 7 -2
20 -10 29 -8 8 -12 17 -9 21 4 3 1 6 -5 6 -6 0 -9 6 -6 14 3 7 -2 20 -10 29
-8 8 -12 17 -9 21 4 3 1 6 -6 6 -7 0 -9 5 -6 10 3 6 2 10 -4 10 -6 0 -7 7 -4
17 5 12 3 14 -8 8 -8 -4 -11 -5 -7 -1 9 10 -11 66 -24 66 -5 0 -6 5 -3 10 3 6
1 10 -6 10 -7 0 -10 3 -6 6 8 8 -13 64 -25 64 -5 0 -6 5 -3 10 3 6 2 10 -4 10
-6 0 -8 7 -5 15 4 8 1 15 -5 15 -7 0 -7 7 1 25 6 13 15 22 19 19 5 -3 9 0 9 6
0 6 3 9 8 7 4 -3 45 8 92 23 73 24 81 29 59 35 -23 6 -102 -15 -190 -50 -20
-7 -32 23 -29 74 1 21 -2 31 -9 27 -6 -4 -9 -1 -6 6 9 24 12 87 3 82 -4 -3 -8
0 -8 5 0 6 5 11 11 11 7 0 9 10 7 25 -3 13 -2 26 2 27 5 2 10 14 12 28 1 14 9
31 16 38 7 8 10 17 7 22 -3 4 2 11 11 14 8 3 13 10 10 15 -3 5 1 12 10 15 9 4
14 9 11 12 -3 3 6 17 21 31 15 13 20 21 12 17 -8 -4 12 20 45 53 32 34 63 59
67 57 4 -3 17 9 29 25 12 17 26 28 30 25 4 -2 13 5 19 16 6 11 15 18 21 15 5
-4 12 1 15 9 3 9 10 13 15 10 5 -3 12 2 15 10 3 9 10 13 15 10 5 -3 12 2 15
10 3 9 10 13 15 10 5 -3 9 -1 9 5 0 6 7 7 17 4 11 -4 14 -3 9 5 -5 8 -2 10 8
6 9 -3 16 -2 16 3 0 5 17 7 38 5 29 -3 34 -1 22 8 -12 10 -12 11 5 5 47 -17
75 -23 75 -18 0 3 8 -5 19 -18 19 -25 36 -143 18 -132 -6 3 -8 -9 -5 -31 2
-20 0 -36 -5 -36 -5 0 -7 -9 -4 -20 3 -11 1 -20 -5 -20 -6 0 -8 -9 -5 -20 3
-10 1 -20 -4 -22 -5 -2 -10 -14 -11 -28 -2 -14 -6 -27 -10 -30 -3 -3 -8 -14
-10 -25 -1 -11 -9 -26 -16 -34 -7 -7 -11 -20 -8 -27 3 -8 1 -14 -5 -14 -6 0
-7 -4 -4 -10 3 -5 1 -10 -4 -10 -6 0 -24 -27 -41 -60 -17 -33 -27 -60 -23 -60
4 0 -1 -6 -12 -13 -12 -10 -14 -16 -7 -21 15 -9 32 1 32 20 0 8 5 14 11 14 5
0 8 4 5 9 -3 5 1 12 10 15 8 3 12 10 9 16 -3 5 -1 10 5 10 6 0 9 4 6 9 -3 5 1
12 10 15 9 4 14 13 10 21 -3 8 -1 15 5 15 6 0 7 5 4 10 -3 6 -1 10 5 10 6 0 9
4 6 9 -4 5 -1 11 4 13 6 2 12 13 13 26 0 12 5 22 10 22 5 0 7 6 4 14 -3 8 -1
16 4 18 6 2 12 15 12 30 1 14 6 24 11 20 5 -3 7 5 4 16 -4 12 -2 22 4 22 6 0
8 9 5 20 -3 11 -1 20 5 20 6 0 8 9 5 20 -3 11 0 20 5 20 6 0 8 12 4 30 -3 19
-2 29 4 25 6 -4 10 11 10 37 0 56 -10 89 -23 81 -5 -3 -7 -1 -4 4 4 6 0 16 -8
23 -8 7 -15 9 -15 4 0 -4 -6 1 -14 11 -8 11 -19 16 -30 12 -9 -4 -16 -2 -16 3
0 6 -20 10 -45 10 -25 0 -45 -4 -45 -9z m-785 -1030 c-4 -31 -14 -99 -23 -151
-8 -52 -16 -105 -16 -117 -1 -13 -5 -23 -10 -23 -4 0 -6 -9 -3 -20 3 -10 1
-20 -4 -22 -5 -2 -10 -18 -12 -36 -1 -17 -5 -32 -9 -32 -7 0 -23 -59 -20 -72
1 -5 -3 -8 -9 -8 -6 0 -8 -7 -5 -16 4 -10 2 -13 -6 -8 -8 5 -9 2 -5 -9 4 -10
2 -17 -4 -17 -6 0 -8 -7 -5 -16 4 -10 2 -13 -6 -8 -7 5 -9 2 -5 -9 3 -9 1 -17
-4 -19 -5 -2 -11 -13 -12 -26 0 -12 -5 -22 -10 -22 -4 0 -5 -4 -2 -10 3 -5 2
-10 -3 -10 -12 0 -34 -49 -27 -61 4 -5 1 -9 -5 -9 -6 0 -8 -4 -5 -10 3 -5 2
-10 -3 -10 -9 0 -59 -104 -51 -107 2 -1 -5 -9 -16 -17 -11 -8 -20 -20 -20 -28
0 -7 -13 -19 -30 -27 -16 -8 -32 -17 -35 -22 -3 -4 -17 3 -32 16 -15 13 -24
26 -21 29 4 3 1 6 -5 6 -6 0 -9 7 -6 15 4 8 1 15 -5 15 -6 0 -8 7 -5 15 4 8 2
15 -2 15 -5 0 -7 23 -5 51 2 36 0 49 -8 45 -7 -5 -11 1 -11 14 0 13 4 19 11
14 8 -4 10 11 7 50 -1 31 1 56 6 56 5 0 6 14 2 30 -4 22 -2 29 6 24 7 -5 9 1
6 19 -3 15 -1 24 4 21 5 -4 9 2 7 12 -1 11 6 36 15 57 9 21 14 42 11 47 -4 6
-1 10 5 10 6 0 8 5 5 10 -3 6 -1 10 5 10 6 0 8 5 5 10 -3 6 -1 10 5 10 6 0 8
5 5 10 -3 6 -1 10 5 10 6 0 9 4 6 9 -3 5 1 12 10 15 8 3 12 10 9 16 -3 5 -1
10 6 10 7 0 10 3 6 6 -3 4 4 15 16 26 12 11 15 17 7 13 -8 -4 -4 3 10 14 14
11 21 21 16 21 -5 0 3 9 17 21 15 11 26 23 24 27 -3 10 104 118 114 115 5 -2
18 10 30 27 12 16 26 27 30 24 5 -3 14 4 20 14 6 10 18 19 26 19 11 0 13 -12
8 -56z"/>
</g>
</svg>
